Coordinates
version=1
nRows=11
nColumns=42
inDegrees=yes

Units are S.I. units (second, meters, Newtons, ...)
If the header above contains a line with 'inDegrees', this indicates whether rotational values are in degrees (yes) or radians (no).

endheader
time	pelvis_tilt	pelvis_list	pelvis_rotation	pelvis_tx	pelvis_ty	pelvis_tz	hip_flexion_r	hip_adduction_r	hip_rotation_r	knee_angle_r	knee_adduction_r	knee_angle_r_beta	ankle_angle_r	subtalar_angle_r	mtp_angle_r	hip_flexion_l	hip_adduction_l	hip_rotation_l	knee_angle_l	knee_adduction_l	knee_angle_l_beta	ankle_angle_l	subtalar_angle_l	mtp_angle_l	lumbar_extension	lumbar_bending	lumbar_rotation	arm_flex_r	arm_add_r	arm_rot_r	elbow_flex_r	pro_sup_r	wrist_flex_r	wrist_dev_r	arm_flex_l	arm_add_l	arm_rot_l	elbow_flex_l	pro_sup_l	wrist_flex_l	wrist_dev_l
      2.15000000	     23.25748019	      1.40407445	      2.87281567	      0.42803505	      0.95045106	     -0.34730871	     -8.51488200	      2.99951938	    -32.19857630	     25.48383958	    -15.58072543	      0.44477691	     15.15683569	     37.66138892	     -7.52890487	    -26.50558038	      4.19491509	      0.24229450	     43.27806557	      9.10627363	      0.75534474	      4.35616904	    -18.85189302	     -7.52890487	    -38.28343849	     -3.90294306	      0.88134664	      6.38040631	     -8.29180933	    -39.09903657	     23.62349266	     90.00000001	      0.00000000	      0.00000000	      1.15600497	    -20.86723614	      7.76592512	     71.33730546	     90.00000001	      0.00000000	      0.00000000
      2.16000000	     23.14427247	      1.29463297	      3.00912538	      0.43279195	      0.95068801	     -0.34821083	     -8.78542002	      3.16646344	    -32.13437081	     25.34347080	    -15.57224378	      0.44232701	     15.34689053	     37.55737056	     -7.52504389	    -25.03572121	      3.43611115	     -0.52419590	     45.64889245	      9.15211597	      0.79672347	      4.69404254	    -18.94759067	     -7.52504389	    -38.20871086	     -3.79899068	      0.98667158	      5.96920510	     -8.67347970	    -33.49256363	     25.11140585	     90.00000001	      0.00000000	      0.00000000	      1.29890745	    -20.87838670	      7.73476297	     71.61680098	     90.00000001	      0.00000000	      0.00000000
      2.17000000	     23.12373721	      1.39429058	      3.23021131	      0.43748791	      0.95122512	     -0.34955942	     -9.25470737	      3.05857550	    -31.80809381	     25.21553782	    -15.25157579	      0.44009416	     15.60987697	     37.33295984	     -7.52460596	    -23.71789101	      2.99257552	     -0.86405436	     47.52765359	      8.99128169	      0.82951404	      4.95743959	    -19.09107977	     -7.52460596	    -38.25756267	     -3.81093918	      0.86206123	      6.56141597	     -8.67696865	    -33.21859682	     25.63456673	     90.00000001	      0.00000000	      0.00000000	      1.43458713	    -20.90094501	      7.78346192	     71.85969447	     90.00000001	      0.00000000	      0.00000000
      2.18000000	     22.99869520	      1.36074401	      3.42575367	      0.44211628	      0.95143753	     -0.35068635	     -9.53350725	      3.15256947	    -31.53352003	     25.10707816	    -15.11798738	      0.43820118	     15.88683500	     37.07912528	     -7.52414075	    -22.18028160	      2.36488047	     -1.59987908	     49.37501254	      8.61588844	      0.86175654	      5.61342280	    -19.16294724	     -7.52414075	    -38.18791910	     -3.73299169	      0.87085849	      7.13374661	     -8.73354302	    -32.78263246	     26.19799074	     90.00000001	      0.00000000	      0.00000000	      1.57481208	    -20.91402910	      7.83447502	     72.10622377	     90.00000001	      0.00000000	      0.00000000
      2.19000000	     22.82721325	      1.21944380	      3.48081772	      0.44671612	      0.95147160	     -0.35140412	     -9.65897599	      3.40786154	    -31.27298209	     25.06259033	    -15.24585002	      0.43742472	     16.12041977	     36.75035591	     -7.52345618	    -20.57157980	      1.61939854	     -2.55237100	     50.98961537	      8.19123937	      0.88993667	      6.48074900	    -19.20939024	     -7.52345618	    -38.06397359	     -3.66415381	      1.09984367	      7.61298091	     -8.83771373	    -31.88648268	     26.85537246	     90.00000001	      0.00000000	      0.00000000	      1.76831073	    -20.89887818	      7.87120379	     72.26601875	     90.00000001	      0.00000000	      0.00000000
      2.20000000	     22.75977550	      1.25202931	      3.61630085	      0.45130324	      0.95179274	     -0.35263864	    -10.02166900	      3.39890070	    -30.91860916	     24.94742717	    -15.06047947	      0.43541474	     16.37523930	     36.43354634	     -7.52288137	    -19.12612858	      1.14088929	     -3.20861394	     52.09585877	      7.63546701	      0.90924426	      7.29647047	    -19.25672749	     -7.52288137	    -38.07130782	     -3.66591682	      1.11550092	      8.13825292	     -8.95006022	    -30.99288638	     27.57044877	     90.00000001	      0.00000000	      0.00000000	      1.92686611	    -20.89961378	      7.95928621	     72.42684671	     90.00000001	      0.00000000	      0.00000000
      2.21000000	     22.67871847	      1.26443018	      3.71961131	      0.45577358	      0.95209958	     -0.35381429	    -10.34044525	      3.42530353	    -30.55805138	     24.84116352	    -14.93912066	      0.43356009	     16.62964022	     36.08503661	     -7.52231231	    -17.64962590	      0.64885197	     -3.88763022	     52.87650969	      7.04761524	      0.92286919	      8.15485031	    -19.29351014	     -7.52231231	    -38.08788797	     -3.67316441	      1.18838637	      8.64336632	     -9.07297925	    -29.95077611	     28.34278117	     90.00000001	      0.00000000	      0.00000000	      2.13393742	    -20.87311584	      8.06257212	     72.56716226	     90.00000001	      0.00000000	      0.00000000
      2.22000000	     22.75540125	      1.41318348	      3.63007504	      0.46019092	      0.95285930	     -0.35477356	    -10.78515950	      3.21392984	    -30.37738614	     24.83475458	    -14.85853239	      0.43344824	     16.65539665	     35.69517501	     -7.52214859	    -16.53070898	      0.40170845	     -4.00796494	     52.88658753	      6.91091499	      0.92304508	      8.39595840	    -19.31150315	     -7.52214859	    -38.30009175	     -3.90848127	      1.34844217	      9.41162614	     -9.10044773	    -29.72727248	     28.75629135	     90.00000001	      0.00000000	      0.00000000	      2.39945170	    -20.80423697	      8.08451967	     72.62238703	     90.00000001	      0.00000000	      0.00000000
      2.23000000	     22.59713845	      1.37300948	      3.79713856	      0.46454023	      0.95286268	     -0.35615907	    -11.06448567	      3.34919657	    -29.85237798	     24.60536822	    -14.72609234	      0.42944469	     17.01807170	     35.30277805	     -7.52008058	    -14.82926010	     -0.06405485	     -4.67474944	     53.40773642	      6.03062987	      0.93214085	      9.51739890	    -19.32933797	     -7.52008058	    -38.24986002	     -3.83163165	      1.41966231	      9.14372931	     -9.71694559	    -24.78240727	     30.57317042	     90.00000001	      0.00000000	      0.00000000	      2.58570918	    -20.81703101	      8.32383691	     72.71040948	     90.00000001	      0.00000000	      0.00000000
      2.24000000	     22.55057437	      1.49469801	      3.83648086	      0.46885268	      0.95329865	     -0.35749673	    -11.43976647	      3.22196502	    -29.51775935	     24.46244707	    -14.60019569	      0.42695024	     17.23033832	     34.90402537	     -7.51976788	    -13.44434494	     -0.25167494	     -4.80858562	     53.14195503	      5.55831657	      0.92750209	     10.03176776	    -19.33995344	     -7.51976788	    -38.34344394	     -3.96145907	      1.45695054	      9.89093241	     -9.75765047	    -24.52468945	     31.13884306	     90.00000001	      0.00000000	      0.00000000	      2.77716133	    -20.76847763	      8.38640656	     72.78932053	     90.00000001	      0.00000000	      0.00000000
      2.25000000	     22.51688732	      1.57863707	      3.83993469	      0.47318775	      0.95367111	     -0.35883502	    -11.80191775	      3.09845171	    -29.31195722	     24.34618030	    -14.52024067	      0.42492101	     17.51408371	     34.80713420	     -7.51820343	    -12.08956751	     -0.43374554	     -4.92053500	     52.62605998	      5.06467647	      0.91849802	     10.48008302	    -19.33215004	     -7.51820343	    -38.44231927	     -4.07946665	      1.58628160	     10.23721275	    -10.07701170	    -22.44170413	     32.26929625	     90.00000001	      0.00000000	      0.00000000	      2.98619044	    -20.73924472	      8.60306791	     72.84292065	     90.00000001	      0.00000000	      0.00000000
